<?xml version="1.0" encoding="UTF-8"?><svg xmlns="http://www.w3.org/2000/svg" xmlns:xlink="http://www.w3.org/1999/xlink" width="375" zoomAndPan="magnify" viewBox="0 0 375 374.999991" height="374.999991" preserveAspectRatio="xMidYMid meet" version="1.0"><defs><clipPath id="clip-0"><path d="M 0 127.40625 L 375 127.40625 L 375 247.40625 L 0 247.40625 Z M 0 127.40625 " clip-rule="nonzero"/></clipPath></defs><g clip-path="url(#clip-0)"><path fill="rgb(65.098572%, 65.098572%, 65.098572%)" d="M 372.394531 209.476562 C 371.757812 209.476562 371.175781 209.890625 370.875 210.75 C 367.03125 221.703125 361.835938 228.21875 357.5625 228.21875 C 355.105469 228.21875 354.113281 225.484375 354.113281 221.195312 C 354.113281 210.46875 360.542969 187.722656 363.789062 177.351562 C 364.164062 176.097656 364.40625 174.976562 364.40625 174.019531 C 364.40625 171.007812 362.757812 169.527344 358.667969 169.527344 C 354.261719 169.527344 349.519531 171.25 344.90625 179.320312 C 343.3125 172.203125 338.492188 169.097656 331.761719 169.097656 C 323.980469 169.097656 316.460938 174.097656 310.273438 182.203125 C 304.085938 190.308594 296.8125 192.964844 291.335938 191.65625 C 295.273438 182.035156 296.738281 174.84375 296.738281 169.507812 C 296.738281 161.140625 292.59375 156.085938 285.898438 156.085938 C 275.71875 156.085938 269.851562 165.785156 269.851562 175.988281 C 269.851562 183.867188 273.429688 191.972656 281.304688 195.90625 C 274.707031 210.808594 265.070312 224.285156 261.414062 224.285156 C 256.6875 224.285156 255.300781 201.203125 255.5625 184.691406 C 255.730469 175.21875 256.519531 174.730469 256.519531 171.867188 C 256.519531 170.21875 255.449219 169.097656 251.15625 169.097656 C 241.144531 169.097656 238.050781 177.558594 237.582031 187.273438 C 237.429688 190.964844 236.851562 194.632812 235.855469 198.1875 C 231.675781 213.089844 223.050781 224.398438 217.425781 224.398438 C 214.820312 224.398438 214.105469 221.796875 214.105469 218.390625 C 214.105469 207.660156 220.125 194.257812 220.125 182.820312 C 220.125 174.414062 216.429688 169.097656 209.476562 169.097656 C 201.28125 169.097656 190.445312 178.832031 180.1875 197.066406 C 183.5625 183.101562 184.949219 169.585938 174.957031 169.585938 C 172.78125 169.621094 170.664062 170.164062 168.75 171.195312 C 167.4375 171.8125 166.632812 173.160156 166.726562 174.601562 C 167.679688 189.464844 154.726562 227.542969 142.445312 227.542969 C 140.210938 227.542969 139.125 225.128906 139.125 221.234375 C 139.125 210.488281 145.539062 187.800781 148.761719 177.410156 C 149.175781 176.0625 149.398438 174.902344 149.398438 173.890625 C 149.398438 171.042969 147.636719 169.585938 143.644531 169.585938 C 139.257812 169.585938 134.492188 171.25 129.898438 179.320312 C 128.289062 172.203125 123.46875 169.097656 116.738281 169.097656 C 105.695312 169.097656 93.355469 180.761719 87.9375 195.960938 C 80.679688 216.253906 66.054688 235.855469 46.367188 235.855469 C 28.5 235.855469 19.070312 221.011719 19.070312 197.554688 C 19.070312 163.6875 43.96875 136.019531 62.4375 136.019531 C 71.269531 136.019531 75.488281 141.632812 75.488281 150.246094 C 75.488281 160.671875 69.65625 165.523438 69.65625 169.492188 C 69.65625 170.707031 70.667969 171.90625 72.675781 171.90625 C 80.699219 171.90625 90.148438 162.488281 90.148438 149.648438 C 90.148438 136.804688 79.707031 127.40625 61.238281 127.40625 C 30.710938 127.40625 0 158.070312 0 197.367188 C 0 228.628906 15.449219 247.480469 42.167969 247.480469 C 60.394531 247.480469 76.3125 233.328125 84.898438 216.816406 C 85.875 230.5 92.101562 237.652344 101.585938 237.652344 C 110.023438 237.652344 116.851562 232.636719 122.0625 223.816406 C 124.070312 233.046875 129.394531 237.558594 136.3125 237.558594 C 144.242188 237.558594 150.882812 232.542969 157.199219 223.21875 C 157.105469 230.539062 158.773438 237.429688 165.132812 237.429688 C 168.132812 237.429688 171.710938 236.734375 172.351562 234.113281 C 179.042969 206.484375 195.582031 183.925781 200.644531 183.925781 C 202.144531 183.925781 202.554688 185.367188 202.554688 187.070312 C 202.554688 194.578125 197.25 209.964844 197.25 219.792969 C 197.25 230.40625 201.769531 237.429688 211.105469 237.429688 C 221.457031 237.429688 231.976562 224.773438 238.988281 206.277344 C 241.179688 223.554688 245.925781 237.503906 253.351562 237.503906 C 262.460938 237.503906 278.644531 218.351562 288.449219 198.078125 C 292.292969 198.5625 298.070312 198.433594 303.617188 194.519531 C 301.257812 200.492188 299.867188 207.027344 299.867188 213.558594 C 299.867188 232.375 308.867188 237.652344 316.613281 237.652344 C 325.03125 237.652344 331.855469 232.636719 337.085938 223.816406 C 338.8125 231.773438 343.21875 237.539062 351.320312 237.539062 C 363.992188 237.539062 375 224.605469 375 213.988281 C 375 211.179688 373.800781 209.476562 372.394531 209.476562 Z M 109.3125 227.226562 C 104.195312 227.226562 102.1875 222.078125 102.1875 214.402344 C 102.1875 201.074219 111.320312 178.8125 120.976562 178.8125 C 125.195312 178.8125 126.789062 183.773438 126.789062 189.839844 C 126.789062 203.375 118.105469 227.226562 109.3125 227.226562 Z M 284.644531 187.445312 C 281.585938 183.8125 280.480469 178.871094 280.480469 174.46875 C 280.480469 169.042969 282.46875 164.453125 284.851562 164.453125 C 287.230469 164.453125 287.960938 166.792969 287.960938 170.050781 C 287.960938 175.5 286.011719 183.457031 284.644531 187.445312 Z M 324.335938 227.226562 C 319.21875 227.226562 317.210938 221.308594 317.210938 214.402344 C 317.210938 201.539062 326.34375 178.8125 336.074219 178.8125 C 340.292969 178.8125 341.792969 183.738281 341.792969 189.839844 C 341.792969 203.375 333.261719 227.226562 324.335938 227.226562 Z M 324.335938 227.226562 " fill-opacity="1" fill-rule="nonzero"/></g></svg>