<?xml version="1.0" encoding="UTF-8"?><svg xmlns="http://www.w3.org/2000/svg" xmlns:xlink="http://www.w3.org/1999/xlink" width="375" zoomAndPan="magnify" viewBox="0 0 375 374.999991" height="374.999991" preserveAspectRatio="xMidYMid meet" version="1.0"><defs><clipPath id="clip-0"><path d="M 187 125 L 312.328125 125 L 312.328125 250 L 187 250 Z M 187 125 " clip-rule="nonzero"/></clipPath><clipPath id="clip-1"><path d="M 62.578125 0 L 312.328125 0 L 312.328125 375 L 62.578125 375 Z M 62.578125 0 " clip-rule="nonzero"/></clipPath></defs><g clip-path="url(#clip-0)"><path fill="rgb(65.098572%, 65.098572%, 65.098572%)" d="M 312.296875 187.484375 C 312.296875 189.527344 312.195312 191.570312 311.996094 193.605469 C 311.796875 195.636719 311.496094 197.660156 311.097656 199.664062 C 310.699219 201.667969 310.203125 203.648438 309.609375 205.605469 C 309.015625 207.5625 308.328125 209.484375 307.546875 211.375 C 306.765625 213.265625 305.890625 215.109375 304.929688 216.914062 C 303.964844 218.714844 302.914062 220.46875 301.78125 222.167969 C 300.644531 223.867188 299.429688 225.507812 298.132812 227.089844 C 296.835938 228.667969 295.464844 230.183594 294.019531 231.628906 C 292.574219 233.074219 291.0625 234.445312 289.480469 235.742188 C 287.902344 237.039062 286.261719 238.257812 284.5625 239.394531 C 282.863281 240.527344 281.109375 241.578125 279.308594 242.542969 C 277.507812 243.507812 275.660156 244.378906 273.773438 245.160156 C 271.882812 245.945312 269.960938 246.632812 268.007812 247.226562 C 266.050781 247.820312 264.070312 248.316406 262.066406 248.714844 C 260.0625 249.113281 258.042969 249.414062 256.007812 249.613281 C 253.972656 249.8125 251.933594 249.914062 249.890625 249.914062 C 247.847656 249.914062 245.808594 249.8125 243.773438 249.613281 C 241.738281 249.414062 239.71875 249.113281 237.714844 248.714844 C 235.710938 248.316406 233.730469 247.820312 231.773438 247.226562 C 229.820312 246.632812 227.898438 245.945312 226.007812 245.160156 C 224.121094 244.378906 222.273438 243.507812 220.472656 242.542969 C 218.667969 241.578125 216.917969 240.527344 215.21875 239.394531 C 213.519531 238.257812 211.878906 237.039062 210.300781 235.742188 C 208.71875 234.445312 207.207031 233.074219 205.761719 231.628906 C 204.316406 230.183594 202.945312 228.667969 201.648438 227.089844 C 200.351562 225.507812 199.136719 223.867188 198 222.167969 C 196.867188 220.46875 195.816406 218.714844 194.851562 216.914062 C 193.890625 215.109375 193.015625 213.265625 192.234375 211.375 C 191.453125 209.484375 190.765625 207.5625 190.171875 205.605469 C 189.578125 203.648438 189.082031 201.667969 188.683594 199.664062 C 188.285156 197.660156 187.984375 195.636719 187.785156 193.605469 C 187.585938 191.570312 187.484375 189.527344 187.484375 187.484375 C 187.484375 185.441406 187.585938 183.398438 187.785156 181.363281 C 187.984375 179.332031 188.285156 177.308594 188.683594 175.304688 C 189.082031 173.300781 189.578125 171.320312 190.171875 169.363281 C 190.765625 167.40625 191.453125 165.484375 192.234375 163.59375 C 193.015625 161.703125 193.890625 159.859375 194.851562 158.054688 C 195.816406 156.253906 196.867188 154.5 198 152.800781 C 199.136719 151.101562 200.351562 149.460938 201.648438 147.878906 C 202.945312 146.300781 204.316406 144.785156 205.761719 143.339844 C 207.207031 141.894531 208.71875 140.523438 210.300781 139.226562 C 211.878906 137.929688 213.519531 136.710938 215.21875 135.574219 C 216.917969 134.441406 218.671875 133.390625 220.472656 132.425781 C 222.273438 131.460938 224.121094 130.589844 226.007812 129.808594 C 227.898438 129.023438 229.820312 128.335938 231.773438 127.742188 C 233.730469 127.148438 235.710938 126.652344 237.714844 126.253906 C 239.71875 125.855469 241.738281 125.554688 243.773438 125.355469 C 245.808594 125.15625 247.847656 125.054688 249.890625 125.054688 C 251.933594 125.054688 253.972656 125.15625 256.007812 125.355469 C 258.042969 125.554688 260.0625 125.855469 262.066406 126.253906 C 264.070312 126.652344 266.050781 127.148438 268.007812 127.742188 C 269.960938 128.335938 271.882812 129.023438 273.773438 129.808594 C 275.660156 130.589844 277.507812 131.460938 279.308594 132.425781 C 281.109375 133.390625 282.863281 134.441406 284.5625 135.574219 C 286.261719 136.710938 287.902344 137.929688 289.480469 139.226562 C 291.0625 140.523438 292.574219 141.894531 294.019531 143.339844 C 295.464844 144.785156 296.835938 146.300781 298.132812 147.878906 C 299.429688 149.460938 300.644531 151.101562 301.78125 152.800781 C 302.914062 154.5 303.964844 156.253906 304.929688 158.054688 C 305.890625 159.859375 306.765625 161.703125 307.546875 163.59375 C 308.328125 165.484375 309.015625 167.40625 309.609375 169.363281 C 310.203125 171.320312 310.699219 173.300781 311.097656 175.304688 C 311.496094 177.308594 311.796875 179.332031 311.996094 181.363281 C 312.195312 183.398438 312.296875 185.441406 312.296875 187.484375 Z M 312.296875 187.484375 " fill-opacity="1" fill-rule="nonzero"/></g><g clip-path="url(#clip-1)"><path fill="rgb(65.098572%, 65.098572%, 65.098572%)" d="M 62.578125 312.453125 C 62.578125 346.992188 90.535156 374.882812 125 374.882812 C 159.464844 374.882812 187.40625 346.914062 187.40625 312.453125 L 187.40625 125.054688 L 249.890625 125.054688 L 249.90625 125.070312 C 284.386719 125.070312 312.328125 97.085938 312.328125 62.625 C 312.328125 28.164062 284.371094 0.117188 249.90625 0.117188 L 125 0.117188 C 90.519531 0.117188 62.578125 28.085938 62.578125 62.546875 C 62.578125 97.007812 90.535156 124.976562 125 124.976562 C 90.519531 125.070312 62.578125 153.023438 62.578125 187.5 C 62.578125 221.976562 90.535156 249.929688 125 249.929688 C 90.519531 249.929688 62.578125 277.898438 62.578125 312.453125 Z M 62.578125 312.453125 " fill-opacity="1" fill-rule="nonzero"/></g></svg>