<?xml version="1.0" encoding="UTF-8"?><svg xmlns="http://www.w3.org/2000/svg" xmlns:xlink="http://www.w3.org/1999/xlink" width="375" zoomAndPan="magnify" viewBox="0 0 375 374.999991" height="374.999991" preserveAspectRatio="xMidYMid meet" version="1.0"><path fill="rgb(65.098572%, 65.098572%, 65.098572%)" d="M 340.910156 0 L 34.089844 0 C 15.253906 0 0 15.253906 0 34.089844 L 0 340.910156 C 0 359.746094 15.253906 375 34.089844 375 L 340.910156 375 C 359.746094 375 375 359.746094 375 340.910156 L 375 34.089844 C 375 15.253906 359.746094 0 340.910156 0 Z M 193.515625 271.566406 L 86.300781 271.566406 L 86.300781 103.433594 L 116.371094 103.433594 L 116.371094 245.234375 L 193.5 245.234375 L 193.5 271.566406 Z M 298.023438 170.078125 C 295.808594 169.261719 287.878906 168.441406 283.347656 168.441406 C 264.816406 168.441406 251.761719 180.101562 251.761719 197.914062 L 251.761719 271.550781 L 222.871094 271.550781 L 222.871094 144.066406 L 250.722656 144.066406 L 250.722656 163.875 L 252.699219 163.875 C 256.191406 151.296875 269.828125 141.972656 286.140625 141.972656 C 290.214844 141.972656 295.226562 142.433594 298.023438 143.25 Z M 298.023438 170.078125 " fill-opacity="1" fill-rule="nonzero"/></svg>