<?xml version="1.0" encoding="UTF-8"?><svg xmlns="http://www.w3.org/2000/svg" xmlns:xlink="http://www.w3.org/1999/xlink" width="375" zoomAndPan="magnify" viewBox="0 0 375 374.999991" height="374.999991" preserveAspectRatio="xMidYMid meet" version="1.0"><path fill="rgb(65.098572%, 65.098572%, 65.098572%)" d="M 41.667969 0 C 18.75 0 0 18.75 0 41.667969 L 0 333.332031 C 0 356.25 18.75 375 41.667969 375 L 333.332031 375 C 356.25 375 375 356.25 375 333.332031 L 375 41.667969 C 375 18.75 356.25 0 333.332031 0 Z M 81.054688 104.167969 L 137.289062 104.167969 C 185.746094 104.167969 191.527344 148.757812 191.527344 158.445312 C 191.507812 197.195312 164.410156 210.734375 139.199219 210.734375 L 115.925781 210.734375 L 115.925781 268.878906 L 81.054688 268.878906 Z M 115.925781 131.308594 L 115.925781 183.632812 L 139.199219 183.632812 C 154.699219 183.632812 158.570312 172.007812 158.570312 158.445312 C 158.589844 144.863281 152.785156 131.308594 139.199219 131.308594 Z M 253.539062 144.855469 C 282.601562 144.855469 298.09375 162.320312 298.09375 183.632812 L 265.175781 183.632812 C 265.175781 173.945312 261.289062 168.132812 253.539062 168.132812 C 247.726562 168.132812 241.902344 172.019531 241.902344 179.769531 C 241.902344 199.144531 298.136719 193.316406 298.136719 235.960938 C 298.117188 265.023438 269.039062 270.832031 253.539062 270.832031 C 222.539062 270.832031 207.03125 249.519531 207.03125 230.144531 L 238.035156 230.144531 C 238.035156 245.644531 249.664062 247.597656 253.539062 247.597656 C 261.289062 247.597656 267.089844 243.710938 267.089844 235.960938 C 267.089844 218.523438 210.855469 220.453125 210.855469 181.679688 C 210.855469 152.617188 238.019531 144.855469 253.539062 144.855469 Z M 253.539062 144.855469 " fill-opacity="1" fill-rule="nonzero"/></svg>