<?xml version="1.0" encoding="UTF-8"?><svg xmlns="http://www.w3.org/2000/svg" xmlns:xlink="http://www.w3.org/1999/xlink" width="375" zoomAndPan="magnify" viewBox="0 0 375 374.999991" height="374.999991" preserveAspectRatio="xMidYMid meet" version="1.0"><defs><clipPath id="clip-0"><path d="M 272 6 L 370.6875 6 L 370.6875 369 L 272 369 Z M 272 6 " clip-rule="nonzero"/></clipPath></defs><g clip-path="url(#clip-0)"><path fill="rgb(85.099792%, 85.099792%, 85.099792%)" d="M 370.6875 70.261719 L 370.6875 304.738281 C 370.6875 316.289062 363.496094 326.566406 352.660156 330.382812 L 272.359375 368.039062 L 279.644531 269.355469 L 279.644531 105.644531 L 272.359375 6.960938 L 352.660156 44.613281 C 363.496094 48.433594 370.6875 58.710938 370.6875 70.261719 Z M 370.6875 70.261719 " fill-opacity="1" fill-rule="nonzero"/></g><path fill="rgb(45.098877%, 45.098877%, 45.098877%)" d="M 52.03125 277.503906 L 279.644531 105.644531 L 279.644531 17.902344 C 279.644531 7.007812 266.148438 1.914062 258.929688 10.082031 L 12.5 235.148438 C 4.304688 242.699219 4.769531 255.769531 13.472656 262.726562 C 13.472656 262.726562 25.527344 273.929688 29.890625 277.042969 C 36.589844 281.816406 45.394531 282.363281 52.03125 277.503906 Z M 52.03125 277.503906 " fill-opacity="1" fill-rule="nonzero"/><path fill="rgb(65.098572%, 65.098572%, 65.098572%)" d="M 52.03125 97.496094 L 279.644531 269.355469 L 279.644531 357.097656 C 279.644531 367.992188 266.148438 373.085938 258.929688 364.917969 L 12.5 139.851562 C 4.304688 132.300781 4.769531 119.230469 13.472656 112.273438 C 13.472656 112.273438 25.527344 101.070312 29.890625 97.957031 C 36.589844 93.183594 45.394531 92.636719 52.03125 97.496094 Z M 52.03125 97.496094 " fill-opacity="1" fill-rule="nonzero"/></svg>