<?xml version="1.0" encoding="UTF-8"?><svg xmlns="http://www.w3.org/2000/svg" xmlns:xlink="http://www.w3.org/1999/xlink" width="375" zoomAndPan="magnify" viewBox="0 0 375 374.999991" height="374.999991" preserveAspectRatio="xMidYMid meet" version="1.0"><path fill="rgb(65.098572%, 65.098572%, 65.098572%)" d="M 26.65625 187.5 C 26.65625 251.15625 63.640625 306.1875 117.3125 332.265625 L 40.578125 122.046875 C 31.65625 142.03125 26.65625 164.171875 26.65625 187.5 Z M 296.078125 179.359375 C 296.078125 159.484375 288.953125 145.71875 282.8125 135.015625 C 274.671875 121.75 267.015625 110.5625 267.015625 97.296875 C 267.015625 82.53125 278.21875 68.765625 294.015625 68.765625 C 294.71875 68.765625 295.40625 68.859375 296.109375 68.875 C 267.5 42.640625 229.375 26.640625 187.5 26.640625 C 131.296875 26.640625 81.859375 55.46875 53.109375 99.15625 C 56.890625 99.265625 60.4375 99.34375 63.46875 99.34375 C 80.296875 99.34375 106.328125 97.296875 106.328125 97.296875 C 115 96.796875 116.015625 109.53125 107.359375 110.5625 C 107.359375 110.5625 98.640625 111.578125 88.953125 112.078125 L 147.515625 286.3125 L 182.71875 180.75 L 157.671875 112.078125 C 149 111.578125 140.796875 110.5625 140.796875 110.5625 C 132.125 110.046875 133.140625 96.78125 141.8125 97.296875 C 141.8125 97.296875 168.375 99.34375 184.171875 99.34375 C 201 99.34375 227.046875 97.296875 227.046875 97.296875 C 235.71875 96.796875 236.734375 109.53125 228.078125 110.5625 C 228.078125 110.5625 219.34375 111.578125 209.671875 112.078125 L 267.796875 284.96875 L 283.859375 231.359375 C 292 210.46875 296.078125 193.15625 296.078125 179.359375 Z M 190.328125 201.5625 L 142.0625 341.78125 C 156.484375 346.015625 171.71875 348.328125 187.515625 348.328125 C 206.234375 348.328125 224.21875 345.09375 240.9375 339.21875 C 240.515625 338.53125 240.109375 337.78125 239.78125 337 Z M 328.640625 110.328125 C 329.34375 115.453125 329.71875 120.9375 329.71875 126.875 C 329.71875 143.1875 326.65625 161.53125 317.484375 184.46875 L 268.359375 326.515625 C 316.1875 298.625 348.328125 246.828125 348.328125 187.5 C 348.34375 159.515625 341.203125 133.21875 328.640625 110.328125 Z M 328.640625 110.328125 " fill-opacity="1" fill-rule="nonzero"/><path fill="rgb(65.098572%, 65.098572%, 65.098572%)" d="M 0 187.5 C 0 290.875 84.109375 375 187.5 375 C 290.90625 375 375 290.875 375 187.5 C 375 84.125 290.90625 0 187.5 0 C 84.09375 0 0 84.09375 0 187.5 Z M 8.59375 187.5 C 8.59375 88.859375 88.84375 8.59375 187.5 8.59375 C 286.15625 8.59375 366.40625 88.859375 366.40625 187.5 C 366.40625 286.140625 286.140625 366.390625 187.5 366.390625 C 88.859375 366.390625 8.59375 286.125 8.59375 187.5 Z M 8.59375 187.5 " fill-opacity="1" fill-rule="nonzero"/></svg>