<?xml version="1.0" encoding="UTF-8"?><svg xmlns="http://www.w3.org/2000/svg" xmlns:xlink="http://www.w3.org/1999/xlink" contentScriptType="text/ecmascript" width="375" zoomAndPan="magnify" contentStyleType="text/css" viewBox="0 0 375 374.999991" height="374.999991" preserveAspectRatio="xMidYMid meet" version="1.0"><defs><clipPath id="clip-0"><path d="M 76.625 102.226562 L 298.625 102.226562 L 298.625 186 L 76.625 186 Z M 76.625 102.226562 " clip-rule="nonzero"/></clipPath><clipPath id="clip-1"><path d="M 76.625 139 L 298.625 139 L 298.625 272.476562 L 76.625 272.476562 Z M 76.625 139 " clip-rule="nonzero"/></clipPath></defs><rect x="-37.5" width="450" fill="rgb(100%, 100%, 100%)" y="-37.499999" height="449.999989" fill-opacity="1"/><rect x="-37.5" width="450" fill="rgb(100%, 100%, 100%)" y="-37.499999" height="449.999989" fill-opacity="1"/><path fill="rgb(0%, 0%, 0%)" d="M 187.660156 3.535156 C 85.96875 3.535156 3.535156 85.96875 3.535156 187.660156 C 3.535156 289.347656 85.96875 371.785156 187.660156 371.785156 C 289.347656 371.785156 371.785156 289.347656 371.785156 187.660156 C 371.785156 85.96875 289.347656 3.535156 187.660156 3.535156 Z M 187.660156 3.535156 " fill-opacity="1" fill-rule="nonzero"/><g clip-path="url(#clip-0)"><path fill="rgb(100%, 100%, 100%)" d="M 187.625 185.9375 L 298.605469 119.542969 L 298.605469 119.253906 C 298.605469 118.695312 298.578125 118.136719 298.523438 117.582031 C 298.46875 117.027344 298.386719 116.476562 298.277344 115.929688 C 298.171875 115.382812 298.035156 114.84375 297.871094 114.308594 C 297.710938 113.777344 297.523438 113.253906 297.308594 112.738281 C 297.09375 112.222656 296.855469 111.71875 296.589844 111.226562 C 296.328125 110.734375 296.039062 110.257812 295.730469 109.792969 C 295.417969 109.332031 295.085938 108.882812 294.730469 108.453125 C 294.375 108.019531 294 107.609375 293.605469 107.214844 C 293.210938 106.820312 292.796875 106.445312 292.363281 106.09375 C 291.933594 105.738281 291.484375 105.40625 291.019531 105.097656 C 290.554688 104.785156 290.074219 104.5 289.582031 104.238281 C 289.089844 103.976562 288.582031 103.738281 288.066406 103.523438 C 287.550781 103.308594 287.023438 103.121094 286.488281 102.960938 C 285.953125 102.796875 285.414062 102.664062 284.863281 102.554688 C 284.316406 102.445312 283.761719 102.363281 283.207031 102.308594 C 282.648438 102.253906 282.09375 102.226562 281.535156 102.226562 L 93.71875 102.226562 C 93.160156 102.226562 92.601562 102.253906 92.042969 102.308594 C 91.488281 102.363281 90.933594 102.445312 90.386719 102.554688 C 89.839844 102.664062 89.296875 102.796875 88.761719 102.960938 C 88.226562 103.121094 87.699219 103.308594 87.183594 103.523438 C 86.667969 103.738281 86.164062 103.976562 85.667969 104.238281 C 85.175781 104.5 84.695312 104.785156 84.230469 105.097656 C 83.765625 105.40625 83.320312 105.738281 82.886719 106.09375 C 82.453125 106.445312 82.039062 106.820312 81.644531 107.214844 C 81.25 107.609375 80.875 108.019531 80.519531 108.453125 C 80.164062 108.882812 79.832031 109.332031 79.519531 109.792969 C 79.210938 110.257812 78.921875 110.734375 78.660156 111.226562 C 78.394531 111.71875 78.15625 112.222656 77.945312 112.738281 C 77.730469 113.253906 77.542969 113.777344 77.378906 114.308594 C 77.214844 114.84375 77.082031 115.382812 76.972656 115.929688 C 76.863281 116.476562 76.78125 117.027344 76.726562 117.582031 C 76.671875 118.136719 76.644531 118.695312 76.644531 119.253906 L 76.644531 119.542969 Z M 187.625 185.9375 " fill-opacity="1" fill-rule="nonzero"/></g><g clip-path="url(#clip-1)"><path fill="rgb(100%, 100%, 100%)" d="M 192.023438 203.160156 C 191.359375 203.558594 190.652344 203.859375 189.90625 204.066406 C 189.160156 204.273438 188.398438 204.375 187.625 204.375 C 186.851562 204.375 186.089844 204.273438 185.34375 204.066406 C 184.597656 203.859375 183.894531 203.558594 183.230469 203.160156 L 76.644531 139.394531 L 76.644531 255.453125 C 76.644531 256.011719 76.671875 256.566406 76.726562 257.121094 C 76.78125 257.675781 76.863281 258.226562 76.972656 258.773438 C 77.082031 259.320312 77.214844 259.859375 77.378906 260.394531 C 77.542969 260.929688 77.730469 261.453125 77.945312 261.96875 C 78.15625 262.484375 78.394531 262.984375 78.660156 263.476562 C 78.921875 263.96875 79.210938 264.449219 79.519531 264.910156 C 79.832031 265.375 80.164062 265.820312 80.519531 266.253906 C 80.875 266.683594 81.25 267.097656 81.644531 267.492188 C 82.039062 267.886719 82.453125 268.257812 82.886719 268.613281 C 83.320312 268.964844 83.765625 269.296875 84.230469 269.609375 C 84.695312 269.917969 85.175781 270.203125 85.667969 270.46875 C 86.164062 270.730469 86.667969 270.96875 87.183594 271.179688 C 87.699219 271.394531 88.226562 271.582031 88.761719 271.746094 C 89.296875 271.90625 89.839844 272.042969 90.386719 272.148438 C 90.933594 272.257812 91.488281 272.339844 92.042969 272.394531 C 92.601562 272.449219 93.160156 272.476562 93.71875 272.476562 L 281.535156 272.476562 C 282.09375 272.476562 282.648438 272.449219 283.207031 272.394531 C 283.761719 272.339844 284.316406 272.257812 284.863281 272.148438 C 285.414062 272.042969 285.953125 271.90625 286.488281 271.746094 C 287.023438 271.582031 287.550781 271.394531 288.066406 271.179688 C 288.582031 270.96875 289.089844 270.730469 289.582031 270.46875 C 290.074219 270.203125 290.554688 269.917969 291.019531 269.609375 C 291.484375 269.296875 291.933594 268.964844 292.363281 268.613281 C 292.796875 268.257812 293.210938 267.886719 293.605469 267.492188 C 294 267.097656 294.375 266.683594 294.730469 266.253906 C 295.085938 265.820312 295.417969 265.375 295.730469 264.910156 C 296.039062 264.449219 296.328125 263.96875 296.589844 263.476562 C 296.855469 262.984375 297.09375 262.484375 297.308594 261.96875 C 297.523438 261.453125 297.710938 260.929688 297.871094 260.394531 C 298.035156 259.859375 298.171875 259.320312 298.277344 258.773438 C 298.386719 258.226562 298.46875 257.675781 298.523438 257.121094 C 298.578125 256.566406 298.605469 256.011719 298.605469 255.453125 L 298.605469 139.394531 Z M 192.023438 203.160156 " fill-opacity="1" fill-rule="nonzero"/></g></svg>