<?xml version="1.0" encoding="UTF-8"?><svg xmlns="http://www.w3.org/2000/svg" xmlns:xlink="http://www.w3.org/1999/xlink" contentScriptType="text/ecmascript" width="375" zoomAndPan="magnify" contentStyleType="text/css" viewBox="0 0 375 374.999991" height="374.999991" preserveAspectRatio="xMidYMid meet" version="1.0"><defs><clipPath id="clip-0"><path d="M 83.839844 63.984375 L 319.339844 63.984375 L 319.339844 299.484375 L 83.839844 299.484375 Z M 83.839844 63.984375 " clip-rule="nonzero"/></clipPath></defs><path fill="rgb(0%, 0%, 0%)" d="M 187.660156 3.535156 C 85.96875 3.535156 3.535156 85.96875 3.535156 187.660156 C 3.535156 289.347656 85.96875 371.785156 187.660156 371.785156 C 289.347656 371.785156 371.785156 289.347656 371.785156 187.660156 C 371.785156 85.96875 289.347656 3.535156 187.660156 3.535156 Z M 187.660156 3.535156 " fill-opacity="1" fill-rule="nonzero"/><g clip-path="url(#clip-0)"><path fill="rgb(100%, 100%, 100%)" d="M 125.894531 63.984375 C 121.261719 64.019531 117.515625 67.730469 117.480469 72.363281 L 117.480469 89.183594 L 92.21875 89.183594 C 87.585938 89.21875 83.839844 92.996094 83.839844 97.660156 L 83.839844 291.105469 C 83.839844 295.738281 87.585938 299.484375 92.21875 299.484375 L 210 299.484375 C 214.632812 299.484375 218.34375 295.738281 218.378906 291.105469 L 218.378906 274.285156 L 277.320312 274.285156 C 281.949219 274.253906 285.695312 270.472656 285.664062 265.84375 L 285.664062 249.019531 L 310.960938 249.019531 C 315.59375 248.988281 319.304688 245.242188 319.339844 240.609375 L 319.339844 122.828125 C 319.304688 118.226562 315.59375 114.480469 310.960938 114.480469 L 218.378906 114.480469 L 218.378906 97.660156 C 218.378906 92.996094 214.632812 89.21875 210 89.183594 L 184.800781 89.183594 L 184.800781 72.363281 C 184.800781 67.730469 180.988281 63.953125 176.355469 63.984375 Z M 134.304688 80.839844 L 167.980469 80.839844 L 167.980469 89.183594 L 134.304688 89.183594 Z M 100.660156 106.003906 L 201.554688 106.003906 L 201.554688 114.480469 L 100.660156 114.480469 Z M 100.660156 131.304688 L 201.554688 131.304688 L 201.554688 257.429688 L 100.660156 257.429688 Z M 218.378906 131.304688 L 235.199219 131.304688 L 235.199219 139.648438 L 218.378906 139.648438 Z M 252.019531 131.304688 L 268.84375 131.304688 L 268.84375 139.648438 L 252.019531 139.648438 Z M 285.664062 131.304688 L 302.519531 131.304688 L 302.519531 139.648438 L 285.664062 139.648438 Z M 218.378906 156.503906 L 302.519531 156.503906 L 302.519531 232.167969 L 218.378906 232.167969 Z M 218.378906 249.019531 L 235.199219 249.019531 L 235.199219 257.429688 L 218.378906 257.429688 Z M 252.019531 249.019531 L 268.84375 249.019531 L 268.84375 257.429688 L 252.019531 257.429688 Z M 100.660156 274.285156 L 201.554688 274.285156 L 201.554688 282.664062 L 100.660156 282.664062 L 100.660156 274.285156 " fill-opacity="1" fill-rule="nonzero"/></g></svg>