<?xml version="1.0" encoding="UTF-8"?><svg xmlns="http://www.w3.org/2000/svg" xmlns:xlink="http://www.w3.org/1999/xlink" contentScriptType="text/ecmascript" width="375" zoomAndPan="magnify" contentStyleType="text/css" viewBox="0 0 375 374.999991" height="374.999991" preserveAspectRatio="xMidYMid meet" version="1.0"><defs><clipPath id="clip-0"><path d="M 96.117188 78.867188 L 297.117188 78.867188 L 297.117188 279.867188 L 96.117188 279.867188 Z M 96.117188 78.867188 " clip-rule="nonzero"/></clipPath></defs><path fill="rgb(0%, 0%, 0%)" d="M 187.660156 3.535156 C 85.96875 3.535156 3.535156 85.96875 3.535156 187.660156 C 3.535156 289.347656 85.96875 371.785156 187.660156 371.785156 C 289.347656 371.785156 371.785156 289.347656 371.785156 187.660156 C 371.785156 85.96875 289.347656 3.535156 187.660156 3.535156 Z M 187.660156 3.535156 " fill-opacity="1" fill-rule="nonzero"/><g clip-path="url(#clip-0)"><path fill="rgb(100%, 100%, 100%)" d="M 132.007812 78.867188 C 128.054688 78.894531 124.859375 82.0625 124.828125 86.015625 L 124.828125 100.375 L 103.265625 100.375 C 99.3125 100.402344 96.117188 103.625 96.117188 107.609375 L 96.117188 272.714844 C 96.117188 276.667969 99.3125 279.867188 103.265625 279.867188 L 203.792969 279.867188 C 207.746094 279.867188 210.917969 276.667969 210.945312 272.714844 L 210.945312 258.359375 L 261.25 258.359375 C 265.203125 258.328125 268.402344 255.105469 268.371094 251.152344 L 268.371094 236.792969 L 289.964844 236.792969 C 293.917969 236.765625 297.085938 233.570312 297.117188 229.617188 L 297.117188 129.085938 C 297.085938 125.160156 293.917969 121.964844 289.964844 121.964844 L 210.945312 121.964844 L 210.945312 107.609375 C 210.945312 103.625 207.746094 100.402344 203.792969 100.375 L 182.285156 100.375 L 182.285156 86.015625 C 182.285156 82.0625 179.035156 78.835938 175.078125 78.867188 Z M 139.1875 93.25 L 167.929688 93.25 L 167.929688 100.375 L 139.1875 100.375 Z M 110.472656 114.730469 L 196.585938 114.730469 L 196.585938 121.964844 L 110.472656 121.964844 Z M 110.472656 136.320312 L 196.585938 136.320312 L 196.585938 243.972656 L 110.472656 243.972656 Z M 210.945312 136.320312 L 225.300781 136.320312 L 225.300781 143.445312 L 210.945312 143.445312 Z M 239.660156 136.320312 L 254.015625 136.320312 L 254.015625 143.445312 L 239.660156 143.445312 Z M 268.371094 136.320312 L 282.757812 136.320312 L 282.757812 143.445312 L 268.371094 143.445312 Z M 210.945312 157.828125 L 282.757812 157.828125 L 282.757812 222.410156 L 210.945312 222.410156 Z M 210.945312 236.792969 L 225.300781 236.792969 L 225.300781 243.972656 L 210.945312 243.972656 Z M 239.660156 236.792969 L 254.015625 236.792969 L 254.015625 243.972656 L 239.660156 243.972656 Z M 110.472656 258.359375 L 196.585938 258.359375 L 196.585938 265.507812 L 110.472656 265.507812 L 110.472656 258.359375 " fill-opacity="1" fill-rule="nonzero"/></g></svg>