<?xml version="1.0" encoding="UTF-8"?><svg xmlns="http://www.w3.org/2000/svg" xmlns:xlink="http://www.w3.org/1999/xlink" contentScriptType="text/ecmascript" width="375" zoomAndPan="magnify" contentStyleType="text/css" viewBox="0 0 375 374.999991" height="374.999991" preserveAspectRatio="xMidYMid meet" version="1.0"><defs><clipPath id="clip-0"><path d="M 4.039062 7 L 370.789062 7 L 370.789062 366 L 4.039062 366 Z M 4.039062 7 " clip-rule="nonzero"/></clipPath></defs><g clip-path="url(#clip-0)"><path fill="rgb(0%, 0%, 0%)" d="M 187.398438 7.859375 C 86.144531 7.859375 4.039062 89.964844 4.039062 191.25 C 4.039062 272.253906 56.574219 340.988281 129.453125 365.242188 C 138.621094 366.921875 141.96875 361.269531 141.96875 356.410156 C 141.96875 352.054688 141.8125 340.515625 141.722656 325.21875 C 90.714844 336.296875 79.957031 300.632812 79.957031 300.632812 C 71.613281 279.453125 59.601562 273.8125 59.601562 273.8125 C 42.945312 262.429688 60.855469 262.671875 60.855469 262.671875 C 79.253906 263.972656 88.941406 281.578125 88.941406 281.578125 C 105.292969 309.601562 131.867188 301.503906 142.304688 296.8125 C 143.96875 284.96875 148.707031 276.886719 153.949219 272.300781 C 113.222656 267.671875 70.421875 251.945312 70.421875 181.667969 C 70.421875 161.648438 77.570312 145.28125 89.292969 132.460938 C 87.414062 127.816406 81.117188 109.171875 91.097656 83.929688 C 91.097656 83.929688 106.5 78.992188 141.523438 102.726562 C 156.148438 98.660156 171.84375 96.628906 187.429688 96.550781 C 203 96.628906 218.695312 98.660156 233.332031 102.726562 C 268.34375 78.992188 283.714844 83.929688 283.714844 83.929688 C 293.726562 109.171875 287.429688 127.816406 285.535156 132.460938 C 297.285156 145.28125 304.375 161.648438 304.375 181.667969 C 304.375 252.113281 261.496094 267.609375 220.648438 272.148438 C 227.238281 277.800781 233.105469 289.003906 233.105469 306.101562 C 233.105469 330.613281 232.875 350.386719 232.875 356.410156 C 232.875 361.3125 236.175781 367.015625 245.480469 365.226562 C 318.296875 340.914062 370.789062 272.238281 370.789062 191.25 C 370.789062 89.964844 288.683594 7.859375 187.398438 7.859375 Z M 187.398438 7.859375 " fill-opacity="1" fill-rule="evenodd"/></g></svg>