<?xml version="1.0" encoding="UTF-8"?><svg xmlns="http://www.w3.org/2000/svg" xmlns:xlink="http://www.w3.org/1999/xlink" contentScriptType="text/ecmascript" width="375" zoomAndPan="magnify" contentStyleType="text/css" viewBox="0 0 375 374.999991" height="374.999991" preserveAspectRatio="xMidYMid meet" version="1.0"><defs><clipPath id="clip-0"><path d="M 2.019531 5 L 373.269531 5 L 373.269531 368 L 2.019531 368 Z M 2.019531 5 " clip-rule="nonzero"/></clipPath></defs><rect x="-37.5" width="450" fill="rgb(100%, 100%, 100%)" y="-37.499999" height="449.999989" fill-opacity="1"/><rect x="-37.5" width="450" fill="rgb(100%, 100%, 100%)" y="-37.499999" height="449.999989" fill-opacity="1"/><rect x="-37.5" width="450" fill="rgb(100%, 100%, 100%)" y="-37.499999" height="449.999989" fill-opacity="1"/><path fill="rgb(100%, 100%, 100%)" d="M 187.632812 4.996094 C 85.945312 4.996094 3.507812 87.433594 3.507812 189.121094 C 3.507812 290.8125 85.945312 373.246094 187.632812 373.246094 C 289.324219 373.246094 371.757812 290.8125 371.757812 189.121094 C 371.757812 87.433594 289.324219 4.996094 187.632812 4.996094 Z M 187.632812 4.996094 " fill-opacity="1" fill-rule="nonzero"/><g clip-path="url(#clip-0)"><path fill="rgb(0%, 0%, 0%)" d="M 187.628906 5.886719 C 85.132812 5.886719 2.019531 89 2.019531 191.527344 C 2.019531 273.527344 55.199219 343.105469 128.972656 367.652344 C 138.253906 369.355469 141.640625 363.632812 141.640625 358.714844 C 141.640625 354.304688 141.484375 342.625 141.394531 327.140625 C 89.757812 338.355469 78.867188 302.253906 78.867188 302.253906 C 70.421875 280.8125 58.261719 275.105469 58.261719 275.105469 C 41.402344 263.582031 59.53125 263.828125 59.53125 263.828125 C 78.15625 265.144531 87.964844 282.960938 87.964844 282.960938 C 104.515625 311.332031 131.414062 303.132812 141.980469 298.386719 C 143.667969 286.398438 148.460938 278.214844 153.769531 273.574219 C 112.542969 268.886719 69.214844 252.96875 69.214844 181.828125 C 69.214844 161.5625 76.453125 144.996094 88.320312 132.019531 C 86.417969 127.316406 80.042969 108.445312 90.144531 82.890625 C 90.144531 82.890625 105.738281 77.894531 141.191406 101.917969 C 155.996094 97.800781 171.882812 95.746094 187.660156 95.667969 C 203.421875 95.746094 219.308594 97.800781 234.128906 101.917969 C 269.566406 77.894531 285.128906 82.890625 285.128906 82.890625 C 295.261719 108.445312 288.886719 127.316406 286.96875 132.019531 C 298.863281 144.996094 306.042969 161.5625 306.042969 181.828125 C 306.042969 253.140625 262.636719 268.824219 221.289062 273.417969 C 227.957031 279.140625 233.894531 290.480469 233.894531 307.789062 C 233.894531 332.601562 233.664062 352.617188 233.664062 358.714844 C 233.664062 363.679688 237.003906 369.449219 246.425781 367.636719 C 320.132812 343.027344 373.269531 273.511719 373.269531 191.527344 C 373.269531 89 290.15625 5.886719 187.628906 5.886719 Z M 187.628906 5.886719 " fill-opacity="1" fill-rule="evenodd"/></g></svg>