<?xml version="1.0" encoding="UTF-8"?><svg xmlns="http://www.w3.org/2000/svg" xmlns:xlink="http://www.w3.org/1999/xlink" contentScriptType="text/ecmascript" width="375" zoomAndPan="magnify" contentStyleType="text/css" viewBox="0 0 375 374.999991" height="374.999991" preserveAspectRatio="xMidYMid meet" version="1.0"><defs><clipPath id="clip-0"><path d="M 64.761719 64.761719 L 310.011719 64.761719 L 310.011719 310 L 64.761719 310 Z M 64.761719 64.761719 " clip-rule="nonzero"/></clipPath></defs><rect x="-37.5" width="450" fill="rgb(100%, 100%, 100%)" y="-37.499999" height="449.999989" fill-opacity="1"/><rect x="-37.5" width="450" fill="rgb(100%, 100%, 100%)" y="-37.499999" height="449.999989" fill-opacity="1"/><path fill="rgb(100%, 100%, 100%)" d="M 187.632812 3.507812 C 85.945312 3.507812 3.507812 85.945312 3.507812 187.632812 C 3.507812 289.324219 85.945312 371.757812 187.632812 371.757812 C 289.324219 371.757812 371.757812 289.324219 371.757812 187.632812 C 371.757812 85.945312 289.324219 3.507812 187.632812 3.507812 Z M 187.632812 3.507812 " fill-opacity="1" fill-rule="nonzero"/><path fill="rgb(0%, 0%, 0%)" d="M 187.632812 3.507812 C 85.945312 3.507812 3.507812 85.945312 3.507812 187.632812 C 3.507812 289.324219 85.945312 371.757812 187.632812 371.757812 C 289.324219 371.757812 371.757812 289.324219 371.757812 187.632812 C 371.757812 85.945312 289.324219 3.507812 187.632812 3.507812 Z M 187.632812 3.507812 " fill-opacity="1" fill-rule="nonzero"/><g clip-path="url(#clip-0)"><path fill="rgb(100%, 100%, 100%)" d="M 187.332031 86.875 C 220.058594 86.875 223.925781 86.980469 236.878906 87.574219 C 248.808594 88.109375 255.308594 90.097656 259.660156 91.816406 C 265.359375 94.019531 269.441406 96.707031 273.742188 101.007812 C 278.039062 105.304688 280.671875 109.390625 282.929688 115.085938 C 284.59375 119.382812 286.582031 125.886719 287.175781 137.871094 C 287.765625 150.820312 287.875 154.6875 287.875 187.414062 C 287.875 220.140625 287.765625 224.007812 287.175781 236.957031 C 286.636719 248.886719 284.648438 255.390625 282.929688 259.742188 C 280.726562 265.4375 278.039062 269.523438 273.742188 273.820312 C 269.441406 278.121094 265.359375 280.753906 259.660156 283.011719 C 255.363281 284.675781 248.859375 286.664062 236.878906 287.253906 C 223.925781 287.847656 220.058594 287.953125 187.332031 287.953125 C 154.609375 287.953125 150.738281 287.847656 137.789062 287.253906 C 125.859375 286.71875 119.359375 284.730469 115.003906 283.011719 C 109.308594 280.808594 105.226562 278.121094 100.925781 273.820312 C 96.628906 269.523438 93.996094 265.4375 91.738281 259.742188 C 90.070312 255.445312 88.082031 248.941406 87.492188 236.957031 C 86.902344 224.007812 86.792969 220.140625 86.792969 187.414062 C 86.792969 154.6875 86.902344 150.820312 87.492188 137.871094 C 88.03125 125.941406 90.019531 119.4375 91.738281 115.085938 C 93.941406 109.390625 96.628906 105.304688 100.925781 101.007812 C 105.226562 96.707031 109.308594 94.074219 115.003906 91.816406 C 119.304688 90.152344 125.804688 88.164062 137.789062 87.574219 C 150.738281 86.980469 154.609375 86.875 187.332031 86.875 M 187.332031 64.789062 C 154.015625 64.789062 149.878906 64.949219 136.769531 65.542969 C 123.710938 66.132812 114.789062 68.226562 107 71.238281 C 98.9375 74.355469 92.113281 78.546875 85.289062 85.371094 C 78.519531 92.195312 74.328125 99.019531 71.210938 107.078125 C 68.203125 114.871094 66.105469 123.789062 65.515625 136.847656 C 64.921875 149.90625 64.761719 154.097656 64.761719 187.359375 C 64.761719 220.675781 64.921875 224.8125 65.515625 237.925781 C 66.105469 250.984375 68.203125 259.902344 71.210938 267.695312 C 74.328125 275.753906 78.519531 282.582031 85.34375 289.40625 C 92.167969 296.230469 98.992188 300.421875 107.050781 303.535156 C 114.84375 306.546875 123.765625 308.640625 136.820312 309.234375 C 149.878906 309.824219 154.070312 309.984375 187.386719 309.984375 C 220.703125 309.984375 224.839844 309.824219 237.953125 309.234375 C 251.011719 308.640625 259.929688 306.546875 267.722656 303.535156 C 275.78125 300.421875 282.605469 296.230469 289.429688 289.40625 C 296.257812 282.582031 300.449219 275.753906 303.5625 267.695312 C 306.574219 259.902344 308.667969 250.984375 309.261719 237.925781 C 309.851562 224.867188 310.011719 220.675781 310.011719 187.359375 C 310.011719 154.042969 309.851562 149.90625 309.261719 136.796875 C 308.667969 123.738281 306.574219 114.816406 303.5625 107.027344 C 300.449219 98.964844 296.257812 92.140625 289.429688 85.316406 C 282.605469 78.492188 275.78125 74.300781 267.722656 71.183594 C 259.929688 68.175781 251.011719 66.078125 237.953125 65.488281 C 224.839844 64.949219 220.648438 64.789062 187.332031 64.789062 " fill-opacity="1" fill-rule="nonzero"/></g><path fill="rgb(100%, 100%, 100%)" d="M 187.332031 124.4375 C 152.566406 124.4375 124.410156 152.59375 124.410156 187.359375 C 124.410156 222.128906 152.621094 250.339844 187.386719 250.339844 C 222.15625 250.339844 250.367188 222.179688 250.367188 187.359375 C 250.3125 152.59375 222.101562 124.4375 187.332031 124.4375 M 187.332031 228.253906 C 164.765625 228.253906 146.496094 209.984375 146.496094 187.414062 C 146.496094 164.84375 164.765625 146.574219 187.332031 146.574219 C 209.902344 146.574219 228.171875 164.84375 228.171875 187.414062 C 228.226562 209.929688 209.902344 228.253906 187.332031 228.253906 " fill-opacity="1" fill-rule="nonzero"/><path fill="rgb(100%, 100%, 100%)" d="M 267.507812 121.964844 C 267.507812 130.078125 260.898438 136.6875 252.785156 136.6875 C 244.667969 136.6875 238.058594 130.078125 238.058594 121.964844 C 238.058594 113.851562 244.667969 107.242188 252.785156 107.242188 C 260.898438 107.242188 267.507812 113.796875 267.507812 121.964844 " fill-opacity="1" fill-rule="nonzero"/></svg>