<?xml version="1.0" encoding="UTF-8"?><svg xmlns="http://www.w3.org/2000/svg" xmlns:xlink="http://www.w3.org/1999/xlink" contentScriptType="text/ecmascript" width="375" zoomAndPan="magnify" contentStyleType="text/css" viewBox="0 0 375 374.999991" height="374.999991" preserveAspectRatio="xMidYMid meet" version="1.0"><defs><clipPath id="clip-0"><path d="M 2.882812 2.882812 L 371.882812 2.882812 L 371.882812 371.882812 L 2.882812 371.882812 Z M 2.882812 2.882812 " clip-rule="nonzero"/></clipPath></defs><g clip-path="url(#clip-0)"><path fill="rgb(0%, 0%, 0%)" d="M 187.382812 2.882812 C 85.652344 2.882812 2.882812 85.652344 2.882812 187.382812 C 2.882812 289.117188 85.652344 371.882812 187.382812 371.882812 C 289.117188 371.882812 371.882812 289.117188 371.882812 187.382812 C 371.882812 85.652344 289.117188 2.882812 187.382812 2.882812 Z M 187.382812 355.484375 C 94.695312 355.484375 19.285156 280.074219 19.285156 187.382812 C 19.285156 94.695312 94.695312 19.285156 187.382812 19.285156 C 280.074219 19.285156 355.484375 94.695312 355.484375 187.382812 C 355.484375 280.074219 280.074219 355.484375 187.382812 355.484375 Z M 187.382812 355.484375 " fill-opacity="1" fill-rule="nonzero"/></g><path fill="rgb(0%, 0%, 0%)" d="M 226.128906 67.746094 L 148.640625 67.746094 C 104.035156 67.746094 67.746094 104.035156 67.746094 148.640625 L 67.746094 226.128906 C 67.746094 270.734375 104.035156 307.023438 148.640625 307.023438 L 226.128906 307.023438 C 270.734375 307.023438 307.023438 270.734375 307.023438 226.128906 L 307.023438 148.640625 C 307.023438 104.035156 270.734375 67.746094 226.128906 67.746094 Z M 241.996094 132.527344 L 241.996094 107.679688 L 266.839844 107.679688 L 266.839844 132.527344 Z M 151.101562 162.148438 C 159.386719 150.277344 172.949219 143.1875 187.382812 143.1875 C 201.820312 143.1875 215.382812 150.277344 223.664062 162.136719 C 228.84375 169.585938 231.582031 178.3125 231.582031 187.382812 C 231.582031 211.753906 211.753906 231.582031 187.382812 231.582031 C 163.011719 231.582031 143.1875 211.753906 143.1875 187.382812 C 143.1875 178.3125 145.925781 169.585938 151.101562 162.148438 Z M 226.128906 290.625 L 148.640625 290.625 C 113.078125 290.625 84.148438 261.691406 84.148438 226.128906 L 84.148438 165.65625 L 130.832031 165.65625 C 128.179688 172.539062 126.789062 179.875 126.789062 187.382812 C 126.789062 220.796875 153.972656 247.980469 187.386719 247.980469 C 220.796875 247.980469 247.984375 220.796875 247.984375 187.382812 C 247.984375 179.875 246.589844 172.542969 243.941406 165.65625 L 290.625 165.65625 L 290.625 226.132812 C 290.625 261.691406 261.691406 290.625 226.128906 290.625 Z M 226.128906 290.625 " fill-opacity="1" fill-rule="nonzero"/></svg>