<?xml version="1.0" encoding="UTF-8"?><svg xmlns="http://www.w3.org/2000/svg" xmlns:xlink="http://www.w3.org/1999/xlink" contentScriptType="text/ecmascript" width="375" zoomAndPan="magnify" contentStyleType="text/css" viewBox="0 0 375 374.999991" height="374.999991" preserveAspectRatio="xMidYMid meet" version="1.0"><defs><clipPath id="clip-0"><path d="M 2.199219 2.199219 L 372.699219 2.199219 L 372.699219 372.699219 L 2.199219 372.699219 Z M 2.199219 2.199219 " clip-rule="nonzero"/></clipPath></defs><rect x="-37.5" width="450" fill="rgb(100%, 100%, 100%)" y="-37.499999" height="449.999989" fill-opacity="1"/><rect x="-37.5" width="450" fill="rgb(100%, 100%, 100%)" y="-37.499999" height="449.999989" fill-opacity="1"/><path fill="rgb(100%, 100%, 100%)" d="M 187.632812 3.507812 C 85.945312 3.507812 3.507812 85.945312 3.507812 187.632812 C 3.507812 289.324219 85.945312 371.757812 187.632812 371.757812 C 289.324219 371.757812 371.757812 289.324219 371.757812 187.632812 C 371.757812 85.945312 289.324219 3.507812 187.632812 3.507812 Z M 187.632812 3.507812 " fill-opacity="1" fill-rule="nonzero"/><g clip-path="url(#clip-0)"><path fill="rgb(0%, 0%, 0%)" d="M 187.449219 2.199219 C 85.15625 2.199219 2.199219 85.15625 2.199219 187.449219 C 2.199219 289.746094 85.15625 372.699219 187.449219 372.699219 C 289.746094 372.699219 372.699219 289.746094 372.699219 187.449219 C 372.699219 85.15625 289.746094 2.199219 187.449219 2.199219 Z M 133.617188 282.246094 L 88.5 282.246094 L 88.5 146.511719 L 133.617188 146.511719 Z M 111.0625 127.976562 L 110.765625 127.976562 C 95.628906 127.976562 85.835938 117.554688 85.835938 104.527344 C 85.835938 91.210938 95.925781 81.074219 111.359375 81.074219 C 126.792969 81.074219 136.292969 91.210938 136.585938 104.527344 C 136.585938 117.554688 126.792969 127.976562 111.0625 127.976562 Z M 296.300781 282.246094 L 251.1875 282.246094 L 251.1875 209.628906 C 251.1875 191.382812 244.65625 178.933594 228.332031 178.933594 C 215.867188 178.933594 208.445312 187.332031 205.183594 195.433594 C 203.992188 198.335938 203.699219 202.386719 203.699219 206.445312 L 203.699219 282.246094 L 158.585938 282.246094 C 158.585938 282.246094 159.175781 159.246094 158.585938 146.511719 L 203.699219 146.511719 L 203.699219 165.730469 C 209.695312 156.480469 220.421875 143.324219 244.359375 143.324219 C 274.042969 143.324219 296.300781 162.722656 296.300781 204.414062 Z M 296.300781 282.246094 " fill-opacity="1" fill-rule="nonzero"/></g></svg>