<?xml version="1.0" encoding="UTF-8"?><svg xmlns="http://www.w3.org/2000/svg" xmlns:xlink="http://www.w3.org/1999/xlink" contentScriptType="text/ecmascript" width="375" zoomAndPan="magnify" contentStyleType="text/css" viewBox="0 0 375 374.999991" height="374.999991" preserveAspectRatio="xMidYMid meet" version="1.0"><defs><clipPath id="clip-0"><path d="M 4.398438 4.398438 L 370.398438 4.398438 L 370.398438 370.398438 L 4.398438 370.398438 Z M 4.398438 4.398438 " clip-rule="nonzero"/></clipPath></defs><g clip-path="url(#clip-0)"><path fill="rgb(0%, 0%, 0%)" d="M 187.398438 4.398438 C 86.347656 4.398438 4.398438 86.347656 4.398438 187.398438 C 4.398438 288.453125 86.347656 370.398438 187.398438 370.398438 C 288.453125 370.398438 370.398438 288.453125 370.398438 187.398438 C 370.398438 86.347656 288.453125 4.398438 187.398438 4.398438 Z M 134.222656 281.042969 L 89.652344 281.042969 L 89.652344 146.957031 L 134.222656 146.957031 Z M 111.9375 128.648438 L 111.648438 128.648438 C 96.691406 128.648438 87.019531 118.351562 87.019531 105.484375 C 87.019531 92.328125 96.988281 82.316406 112.234375 82.316406 C 127.480469 82.316406 136.863281 92.328125 137.152344 105.484375 C 137.152344 118.351562 127.480469 128.648438 111.9375 128.648438 Z M 294.925781 281.042969 L 250.363281 281.042969 L 250.363281 209.3125 C 250.363281 191.28125 243.910156 178.988281 227.785156 178.988281 C 215.472656 178.988281 208.140625 187.28125 204.917969 195.289062 C 203.738281 198.152344 203.453125 202.15625 203.453125 206.164062 L 203.453125 281.042969 L 158.886719 281.042969 C 158.886719 281.042969 159.46875 159.535156 158.886719 146.957031 L 203.453125 146.957031 L 203.453125 165.941406 C 209.375 156.804688 219.972656 143.808594 243.617188 143.808594 C 272.941406 143.808594 294.925781 162.972656 294.925781 204.160156 Z M 294.925781 281.042969 " fill-opacity="1" fill-rule="nonzero"/></g></svg>